<?xml version="1.0" encoding="utf-8"?>
<!-- Generator: Adobe Illustrator 26.2.1, SVG Export Plug-In . SVG Version: 6.00 Build 0)  -->
<svg version="1.1" id="Layer_1" xmlns="http://www.w3.org/2000/svg" xmlns:xlink="http://www.w3.org/1999/xlink" x="0px" y="0px"
	 viewBox="0 0 450 248" style="enable-background:new 0 0 450 248;" xml:space="preserve">
<style type="text/css">
	.st0{fill:none;stroke:#71C3E7;stroke-width:4;stroke-dasharray:14,13;}
	.st1{fill:#FCD400;}
	.st2{fill:#FC6E47;}
	.st3{fill:#E2B420;}
	.st4{fill:#EBE8E5;}
	.st5{fill:#CCC9C6;}
	.st6{fill:#F7EADC;}
	.st7{fill:#3B3B3B;}
</style>
<path class="st0" d="M14.8,185.6c4.5,2.3,10.9,5.5,18.7,8.9c12.7,5.6,28.4,11.5,39.1,14.3c40.2,10.4,80.3-5.7,90.5-9.7
	c14-5.6,30.4-14.5,41.7-20.7c6.2-3.4,12.9-7.2,20.5-12c4-2.5,13.1-8.2,18.3-12.2c6.7-5.2,17.7-16.2,25.2-39"/>
<g id="Master_x2F_Stickers_x2F_Pencil_1">
	<g id="pencil-1" transform="translate(205.000000, 271.000000)">
		<g id="stickers_expanded">
			<path id="Path" class="st1" d="M90.6-159.8c-1-0.8-1.9-1.7-2.7-2.7l0,0c-3.6-4.6-6.6-9.6-8.9-14.9c-3.6-7.9-6.1-13.9-8.4-20
				c-1.8-5.1-3.2-10.3-4.2-15.6c-0.1-0.6-0.5-1.1-1-1.4c-0.5-0.3-1.2-0.3-1.7-0.1l0,0c-0.6,0.2-56.9,22.4-68,26.1
				c-10,3.3-19.8,7.1-29.3,10.7l-1.6,0.6c-0.7,0.3-1.2,1-1.3,1.8c-1,10.6,1.3,20.7,3.5,30.4c1.4,6.1,4,10.8,7,15.9
				c0.5,0.8,1,1.7,1.5,2.7c1.8,3.3,3.8,7.1,6.6,9l1.3,1.1c0.6,0.5,1.4,0.6,2.1,0.3c21.7-9.8,49.7-20.1,76.7-30
				c9.7-3.5,18.8-6.9,27.6-10.2l0,0c0.7-0.3,1.2-0.8,1.3-1.5C91.4-158.5,91.1-159.2,90.6-159.8L90.6-159.8z"/>
			<path id="Path_00000071527538163715550060000012091287226789890196_" class="st2" d="M-68.3-160.6c-0.6-0.5-1.4-0.6-2.2-0.3
				c-4.5,2-9.7,7.2-12,10.9c-4.1,6.3-5.1,14.1-2.9,21.3c3,9.9,9.7,18.9,17.1,22.8c4.6,2.5,10,3,15,1.3l0.1,0
				c0.6-0.2,1.1-0.8,1.3-1.4c0.2-0.6,0-1.3-0.5-1.8c-0.4-0.5-0.8-1-1.1-1.5l-0.1-0.2l0,0c-3-4.4-5.1-9.8-7-15.1l-1.2-3
				c-2.3-6-4.4-11.7-5.2-17.8c-0.1-0.7-0.2-1.5-0.3-2.4c-0.5-3.3-1.2-7.8-0.5-10.6C-67.5-159.3-67.7-160.1-68.3-160.6z"/>
			<path id="Path_00000163763477755805290090000006424144115890013624_" class="st3" d="M67.3-199.5L67.3-199.5
				c-0.4,0.2-9.8,3.6-14,4.9c-5.7,1.8-16.1,5.6-26.1,9.4c-7.4,2.7-14.3,5.3-18.6,6.8c-10.1,3.4-19.9,7.2-30,11.7
				c-4.5,2-11.8,4.8-12.1,4.9c-1,0.4-2.2-0.1-2.6-1.2c-0.4-1,0.1-2.2,1.2-2.6c0.1,0,7.5-2.8,11.9-4.8c10.2-4.5,20.1-8.4,30.3-11.8
				c4.2-1.4,11.2-4,18.5-6.7c10.1-3.8,20.5-7.6,26.4-9.5c4.1-1.3,13.8-4.8,13.9-4.8c1-0.4,2.2,0.1,2.6,1.2
				C69-201.1,68.4-200,67.3-199.5L67.3-199.5z"/>
			<path id="Path_00000119803636711428089710000003948739582646892691_" class="st3" d="M0.6-139.3c-2.1,0.8-4.1,1.6-6.2,2.3
				c-3.8,1.3-11.1,3.8-17.7,6.6c-1,0.4-2.2-0.1-2.7-1.1c-0.2-0.5-0.2-1.1,0-1.6c0.2-0.5,0.6-0.9,1.1-1.1c6.7-2.9,14.1-5.4,18-6.7
				c6.6-2.2,13.1-5.1,19.5-7.9c4.6-2,9.4-4.2,14.2-6c16.5-6.4,32.8-13.8,49.3-21.5c0.7-0.3,1.5-0.3,2.1,0.1c0.6,0.4,1,1.2,0.9,1.9
				c-0.1,0.7-0.6,1.4-1.3,1.7c-16.6,7.7-32.9,15.1-49.6,21.6c-4.7,1.8-9.4,3.9-14,6C9.7-143.1,5.3-141.1,0.6-139.3z"/>
			<path id="Path_00000079477175192875244100000017925458920099270818_" class="st4" d="M-32.4-175.1c0.1-0.7-0.2-1.4-0.8-1.8
				c-0.6-0.4-1.3-0.5-2-0.3c-3.4,1.3-6.7,2.6-10.1,3.8c-2.6,1-5.3,2.1-7.8,3.2c-2.5,1.1-5,2.1-7.6,3c-0.5,0.2-1.1,0.4-1.8,0.6
				c-2.6,0.8-5.8,1.9-7.5,3.9c-3,3.4-1.9,10.3-1.2,15.3c0.1,0.8,0.2,1.6,0.3,2.2c0.8,6.7,3.1,12.5,5.4,18.8l1.2,3
				c2,5.5,4.2,11.2,7.5,16l0.1,0.2c0.9,1.4,2.2,3.2,4.2,3.9c3.6,1.3,8.3-0.2,12.4-1.8c1-0.4,2-0.8,2.9-1.1c0.9-0.4,1.8-0.7,2.5-1
				c5.1-1.9,9-3.5,12.6-5.3c2.4-1.2,4.9-2.3,7.7-3.6c0.6-0.3,1.1-0.9,1.2-1.6c0.1-0.7-0.2-1.4-0.7-1.8l-1.4-1.2
				c-0.1-0.1-0.1-0.1-0.2-0.1c-1.9-1.3-3.8-4.8-5.3-7.6c-0.6-1-1.1-2-1.6-2.8c-2.9-4.9-5.3-9.2-6.5-14.7
				C-31.1-155.3-33.3-165.1-32.4-175.1z"/>
			<path id="Path_00000140713586474708697660000009240865642175525264_" class="st5" d="M-48.1-111.5L-48.1-111.5
				c-1.1,0.4-2.2-0.1-2.6-1.2l-0.4-1.1c-0.3-0.7-0.1-1.4,0.3-2s1.2-0.8,1.9-0.7c0.7,0.1,1.3,0.6,1.6,1.3l0.4,1.1
				C-46.5-113.1-47.1-111.9-48.1-111.5z"/>
			<path id="Path_00000147913041884054993770000006062560041252754325_" class="st5" d="M-54.6-123.9l-0.3,0.1
				c-0.5,0.1-1.1,0-1.5-0.3c-0.5-0.3-0.8-0.8-0.9-1.3c-0.1-0.6-0.4-1.1-0.8-1.5c-0.8-0.8-0.8-2.1,0-2.9c0.8-0.8,2.1-0.8,2.9,0
				c0.9,1,1.5,2.2,1.8,3.5C-53.2-125.3-53.7-124.3-54.6-123.9L-54.6-123.9z"/>
			<path id="Path_00000064346791911099690290000004931953386508901810_" class="st5" d="M-59.7-137.7c-1,0.4-2,0-2.5-0.9
				c-0.7-1.2-1-2.5-0.9-3.8c0.1-1.1,1-2,2.2-1.9c1.1,0.1,2,1,1.9,2.2c0,0.6,0.1,1.1,0.4,1.6c0.3,0.5,0.4,1,0.2,1.6
				c-0.1,0.5-0.5,1-1,1.2L-59.7-137.7z"/>
			<path id="Path_00000025419620189502348950000008598171568236261550_" class="st5" d="M-63.2-152.1c-0.9,0.3-1.8,0-2.4-0.7
				c-0.5-0.6-0.7-1.4-0.5-2.2c0.2-0.7,0.6-1.3,1.2-1.6c1.1-0.2,2.2,0.3,2.7,1.3s0.3,2.2-0.6,3C-62.9-152.2-63.1-152.1-63.2-152.1
				L-63.2-152.1z"/>
			<path id="Path_00000080178768486751079610000014177330873765143988_" class="st5" d="M-39.4-153.4L-39.4-153.4
				c-0.5,0.2-1.1,0.2-1.6,0s-0.9-0.6-1.1-1.1l-0.1-0.4c-0.2-0.5-0.2-1.1,0-1.6c0.2-0.5,0.6-0.9,1.2-1.1c1.1-0.4,2.2,0.2,2.6,1.2
				l0.1,0.4c0.2,0.5,0.2,1.1,0,1.6C-38.4-153.9-38.9-153.6-39.4-153.4z"/>
			<path id="Path_00000140720037935260198270000016553074904956745118_" class="st5" d="M-34.6-137.8c-0.1,0.1-0.3,0.1-0.5,0.2
				c-1.7-0.6-2.9-2.1-3.1-3.9c0.3-1.1,1.4-1.7,2.5-1.5c1.4,0.4,2.3,1.7,2.4,3.1C-33.3-138.9-33.8-138.1-34.6-137.8L-34.6-137.8z"/>
			<path id="Path_00000085950750339151574690000009695730110489550763_" class="st5" d="M-29.3-124.5L-29.3-124.5
				c-0.5,0.2-1.1,0.2-1.6,0c-0.5-0.2-0.9-0.6-1.1-1.1l-0.7-1.9c-0.4-1.1,0.1-2.2,1.2-2.6c1.1-0.4,2.2,0.1,2.6,1.2l0.7,1.9
				c0.2,0.5,0.2,1.1-0.1,1.6S-28.8-124.7-29.3-124.5L-29.3-124.5z"/>
			<path id="Path_00000054233853284862887370000003583619840511815085_" class="st5" d="M-24.1-115.4L-24.1-115.4
				c-1.1,0.4-2.2-0.1-2.6-1.2l-0.3-0.7c-0.4-1.1,0.1-2.2,1.2-2.6c1.1-0.4,2.2,0.1,2.6,1.2l0.3,0.7c0.2,0.5,0.2,1.1,0,1.6
				C-23.2-116-23.6-115.6-24.1-115.4L-24.1-115.4z"/>
			<path id="Path_00000097473721774524329220000014210779729422278310_" class="st5" d="M-41.1-165L-41.1-165
				c-0.5,0.2-1.1,0.2-1.6-0.1c-0.5-0.2-0.9-0.6-1.1-1.1l-0.1-0.4c-0.4-1.1,0.1-2.2,1.2-2.6c1.1-0.4,2.2,0.1,2.6,1.2l0.1,0.4
				c0.2,0.5,0.2,1.1-0.1,1.6C-40.2-165.6-40.6-165.2-41.1-165L-41.1-165z"/>
			<path id="Path_00000091730601083747187310000013996504472596605091_" class="st6" d="M122.2-203.5c-2.3-3.7-7.8-4.6-12.6-5.4
				c-1-0.2-1.9-0.3-2.8-0.5c-13.9-3-28-4.7-42.3-5.2c-0.6,0-1.2,0.2-1.6,0.7c-0.4,0.5-0.6,1.1-0.4,1.7c1.1,5.5,2.5,10.9,4.4,16.2
				c2.3,6.2,4.8,12.3,8.5,20.3c2.4,5.7,5.6,11,9.4,15.8c1.1,1.3,2.8,3.1,5,3.2c0.6,0,1.3-0.1,1.8-0.3c1.6-0.8,3.1-2,4.2-3.5
				c0.8-0.9,1.7-1.8,2.7-2.7c13.2-11.7,21.1-22.7,24.2-33.5C123.6-198.9,123.4-201.4,122.2-203.5L122.2-203.5z"/>
			<path id="Path_00000183945343763288850120000009932771691251413175_" class="st7" d="M122.2-203.5c-2.3-3.7-7.8-4.6-12.6-5.4
				c-1-0.2-1.9-0.3-2.8-0.5c-2.1-0.4-4.1-0.8-6.1-1.2c-0.7-0.1-1.4,0.1-1.9,0.7c-0.5,0.5-0.6,1.3-0.4,2c0.8,2.4,1.4,4.9,2.2,7.5
				c1.8,6.8,3.7,13.8,8,19.7c0.6,0.8,1.2,1.5,1.8,2.2c0.4,0.4,1,0.7,1.6,0.6c0.2,0,0.4-0.1,0.6-0.1c0.3-0.2,0.6-0.4,0.8-0.7
				c4.2-5.3,7.4-11.3,9.4-17.8C123.6-198.9,123.4-201.4,122.2-203.5L122.2-203.5z"/>
		</g>
	</g>
</g>
<path class="st0" d="M258,59.2c-10.6-12.2-25.7-20.9-41.9-22.7c-15.8-1.8-31.3,4.4-42.5,15.5c-23.9,23.7-17.8,58.7-0.8,84.4
	c9,13.7,21,25.7,34.9,34.6c15.6,10,33.4,14.3,51.7,15.8c37.5,3.1,65.3-23.6,87.1-50.9c10.7-13.5,21.4-29.1,37.2-37
	c13.9-6.9,35.8-8.1,44.1-23.2c1.8-3.2,2.3-6.9,1.2-10.4"/>
</svg>
