<svg width="516" height="252" xmlns="http://www.w3.org/2000/svg" fill="none">

 <g>
  <title>Layer 1</title>
  <path id="svg_1" stroke-dasharray="14 13" stroke-width="4" stroke="#71C3E7" d="m-16,249.424c0,0 65.7452,4.359 113.8383,-10.898c48.0927,-15.258 43.0777,-14.072 86.0597,-39.285c42.982,-25.213 59.88,-35.291 76.255,-74.694c16.375,-39.4025 13.345,-47.8569 0,-74.557c-13.344,-26.7001 -60.244,-60.0182 -102.698,-43.65096c-42.454,16.36726 -58.1178,58.80626 -51.446,92.14706c6.671,33.3409 39.922,70.3139 39.922,70.3139c0,0 34.57,37.584 72.779,44.252c38.208,6.668 59.36,8.902 86.652,-5.041c27.291,-13.942 48.594,-31.937 88.015,-83.464c39.422,-51.5264 64.894,-32.7343 94.005,-59.407c29.111,-26.6726 -24.866,-47.2832 -24.866,-47.2832"/>
  <rect stroke-width="0" id="svg_2" height="71" width="61" y="28" x="246" stroke="#000" fill="#ffffff"/>
 </g>
</svg>