<svg width="390" height="248" viewBox="0 0 390 248" fill="none" xmlns="http://www.w3.org/2000/svg">
<path d="M-16 245.423C-16 245.423 49.7452 249.788 97.8383 234.51C145.931 219.231 140.916 220.419 183.898 195.17M157.455 2C115.001 18.3901 99.3372 60.8881 106.009 94.2753C112.68 127.662 145.931 164.687 145.931 164.687C145.931 164.687 180.501 202.323 218.71 209C256.918 215.678 278.07 217.915 305.362 203.953C332.653 189.991 353.956 171.971 393.377 120.373C432.799 68.7743 458.271 87.5925 487.382 60.8828C516.493 34.1731 462.516 13.5337 462.516 13.5337" stroke="#71C3E7" stroke-width="4" stroke-dasharray="14 13"/>
</svg>
