<svg width="390" height="252" viewBox="0 0 390 252" fill="none" xmlns="http://www.w3.org/2000/svg">
<path d="M-16 249.424C-16 249.424 49.7452 253.783 97.8383 238.526C145.931 223.268 140.916 224.454 183.898 199.241C226.88 174.028 243.778 163.95 260.153 124.547C276.528 85.1445 273.498 76.6901 260.153 49.99C246.809 23.2899 199.909 -10.0282 157.455 6.33904C115.001 22.7063 99.3372 65.1453 106.009 98.4861C112.68 131.827 145.931 168.8 145.931 168.8C145.931 168.8 180.501 206.384 218.71 213.052C256.918 219.72 278.07 221.954 305.362 208.011C332.653 194.069 353.956 176.074 393.377 124.547C432.799 73.0206 458.271 91.8127 487.382 65.14C516.493 38.4674 462.516 17.8568 462.516 17.8568" stroke="#71C3E7" stroke-width="4" stroke-dasharray="14 13"/>
</svg>
